<mxfile host="app.diagrams.net" agent="Mozilla/5.0 (Windows NT 10.0; Win64; x64) AppleWebKit/537.36 (KHTML, like Gecko) Chrome/133.0.0.0 Safari/537.36" version="26.0.16">
  <diagram name="PÃ¡gina-1" id="RO8G_I95euZG2hm6YKna">
    <mxGraphModel dx="1530" dy="668" grid="1" gridSize="10" guides="1" tooltips="1" connect="1" arrows="1" fold="1" page="1" pageScale="1" pageWidth="827" pageHeight="1169" math="0" shadow="0">
      <root>
        <mxCell id="0" />
        <mxCell id="1" parent="0" />
        <mxCell id="FeIkRdgwR6V_Xi4W8fY3-1" value="" style="verticalLabelPosition=bottom;outlineConnect=0;align=center;dashed=0;html=1;verticalAlign=top;shape=mxgraph.pid.misc.conveyor_(belt);rotation=-90;" vertex="1" parent="1">
          <mxGeometry x="530" y="360" width="246" height="70" as="geometry" />
        </mxCell>
        <mxCell id="FeIkRdgwR6V_Xi4W8fY3-2" value="Robot" style="rounded=0;whiteSpace=wrap;html=1;" vertex="1" parent="1">
          <mxGeometry x="340" y="550" width="100" height="70" as="geometry" />
        </mxCell>
        <mxCell id="FeIkRdgwR6V_Xi4W8fY3-3" value="&lt;table cellpadding=&quot;4&quot; cellspacing=&quot;0&quot; border=&quot;0&quot; style=&quot;font-size:1em;width:100%;height:100%;&quot;&gt;&lt;tbody&gt;&lt;tr&gt;&lt;td&gt;CSZ&lt;/td&gt;&lt;/tr&gt;&lt;tr&gt;&lt;td&gt;&lt;br&gt;&lt;/td&gt;&lt;/tr&gt;&lt;/tbody&gt;&lt;/table&gt; " style="html=1;outlineConnect=0;align=center;dashed=0;aspect=fixed;shape=mxgraph.pid2inst.sharedCont;mounting=local" vertex="1" parent="1">
          <mxGeometry x="365" y="410" width="50" height="50" as="geometry" />
        </mxCell>
        <mxCell id="FeIkRdgwR6V_Xi4W8fY3-4" value="" style="endArrow=none;html=1;rounded=0;" edge="1" parent="1">
          <mxGeometry width="50" height="50" relative="1" as="geometry">
            <mxPoint x="389.6600000000001" y="490" as="sourcePoint" />
            <mxPoint x="389.6600000000001" y="460" as="targetPoint" />
          </mxGeometry>
        </mxCell>
        <mxCell id="FeIkRdgwR6V_Xi4W8fY3-5" value="" style="ellipse;whiteSpace=wrap;html=1;aspect=fixed;" vertex="1" parent="1">
          <mxGeometry x="385" y="500" width="10" height="10" as="geometry" />
        </mxCell>
        <mxCell id="FeIkRdgwR6V_Xi4W8fY3-6" value="" style="endArrow=none;html=1;rounded=0;" edge="1" parent="1">
          <mxGeometry width="50" height="50" relative="1" as="geometry">
            <mxPoint x="389.6600000000001" y="550" as="sourcePoint" />
            <mxPoint x="389.6600000000001" y="520" as="targetPoint" />
          </mxGeometry>
        </mxCell>
        <mxCell id="FeIkRdgwR6V_Xi4W8fY3-8" value="M" style="verticalLabelPosition=middle;shadow=0;dashed=0;align=center;html=1;verticalAlign=middle;strokeWidth=1;shape=ellipse;aspect=fixed;fontSize=35;" vertex="1" parent="1">
          <mxGeometry x="510" y="320" width="50" height="50" as="geometry" />
        </mxCell>
        <mxCell id="FeIkRdgwR6V_Xi4W8fY3-9" value="&lt;table cellpadding=&quot;4&quot; cellspacing=&quot;0&quot; border=&quot;0&quot; style=&quot;width: 100%; height: 100%;&quot;&gt;&lt;tbody&gt;&lt;tr&gt;&lt;td&gt;&lt;font style=&quot;font-size: 14px;&quot;&gt;ZT&lt;/font&gt;&lt;/td&gt;&lt;/tr&gt;&lt;tr&gt;&lt;td&gt;&lt;font size=&quot;3&quot;&gt;&lt;br&gt;&lt;/font&gt;&lt;/td&gt;&lt;/tr&gt;&lt;/tbody&gt;&lt;/table&gt; " style="html=1;outlineConnect=0;align=center;dashed=0;aspect=fixed;shape=mxgraph.pid2inst.discInst;mounting=field" vertex="1" parent="1">
          <mxGeometry x="510" y="410" width="50" height="50" as="geometry" />
        </mxCell>
        <mxCell id="FeIkRdgwR6V_Xi4W8fY3-10" value="" style="endArrow=none;dashed=1;html=1;rounded=0;" edge="1" parent="1">
          <mxGeometry width="50" height="50" relative="1" as="geometry">
            <mxPoint x="560" y="344.09000000000003" as="sourcePoint" />
            <mxPoint x="610" y="344" as="targetPoint" />
          </mxGeometry>
        </mxCell>
        <mxCell id="FeIkRdgwR6V_Xi4W8fY3-12" value="" style="endArrow=none;dashed=1;html=1;rounded=0;" edge="1" parent="1">
          <mxGeometry width="50" height="50" relative="1" as="geometry">
            <mxPoint x="560" y="434.83000000000004" as="sourcePoint" />
            <mxPoint x="610" y="435" as="targetPoint" />
          </mxGeometry>
        </mxCell>
        <mxCell id="FeIkRdgwR6V_Xi4W8fY3-13" value="&lt;table cellpadding=&quot;4&quot; cellspacing=&quot;0&quot; border=&quot;0&quot; style=&quot;width: 100%; height: 100%;&quot;&gt;&lt;tbody&gt;&lt;tr&gt;&lt;td&gt;&lt;font style=&quot;font-size: 14px;&quot;&gt;PT&lt;/font&gt;&lt;/td&gt;&lt;/tr&gt;&lt;tr&gt;&lt;td&gt;&lt;font size=&quot;3&quot;&gt;&lt;br&gt;&lt;/font&gt;&lt;/td&gt;&lt;/tr&gt;&lt;/tbody&gt;&lt;/table&gt; " style="html=1;outlineConnect=0;align=center;dashed=0;aspect=fixed;shape=mxgraph.pid2inst.discInst;mounting=field" vertex="1" parent="1">
          <mxGeometry x="240" y="560" width="50" height="50" as="geometry" />
        </mxCell>
        <mxCell id="FeIkRdgwR6V_Xi4W8fY3-15" value="" style="endArrow=none;dashed=1;html=1;rounded=0;" edge="1" parent="1">
          <mxGeometry width="50" height="50" relative="1" as="geometry">
            <mxPoint x="290" y="584.3700000000001" as="sourcePoint" />
            <mxPoint x="340" y="584.54" as="targetPoint" />
          </mxGeometry>
        </mxCell>
        <mxCell id="FeIkRdgwR6V_Xi4W8fY3-16" value="" style="html=1;outlineConnect=0;whiteSpace=wrap;fillColor=#99ff99;shape=mxgraph.archimate.tech;techType=plateau" vertex="1" parent="1">
          <mxGeometry x="290" y="720" width="50" height="40" as="geometry" />
        </mxCell>
        <mxCell id="FeIkRdgwR6V_Xi4W8fY3-18" value="" style="html=1;outlineConnect=0;whiteSpace=wrap;fillColor=#99ff99;shape=mxgraph.archimate.tech;techType=plateau" vertex="1" parent="1">
          <mxGeometry x="350" y="700" width="60" height="60" as="geometry" />
        </mxCell>
        <mxCell id="FeIkRdgwR6V_Xi4W8fY3-19" value="" style="html=1;outlineConnect=0;whiteSpace=wrap;fillColor=#99ff99;shape=mxgraph.archimate.tech;techType=plateau" vertex="1" parent="1">
          <mxGeometry x="420" y="710" width="40" height="50" as="geometry" />
        </mxCell>
        <mxCell id="FeIkRdgwR6V_Xi4W8fY3-20" value="" style="endArrow=none;html=1;rounded=0;" edge="1" parent="1">
          <mxGeometry width="50" height="50" relative="1" as="geometry">
            <mxPoint x="389.38" y="700" as="sourcePoint" />
            <mxPoint x="389.38" y="620" as="targetPoint" />
          </mxGeometry>
        </mxCell>
        <mxCell id="FeIkRdgwR6V_Xi4W8fY3-21" value="" style="endArrow=none;html=1;rounded=0;" edge="1" parent="1">
          <mxGeometry width="50" height="50" relative="1" as="geometry">
            <mxPoint x="440" y="590.38" as="sourcePoint" />
            <mxPoint x="650" y="590" as="targetPoint" />
          </mxGeometry>
        </mxCell>
        <mxCell id="FeIkRdgwR6V_Xi4W8fY3-22" value="" style="endArrow=none;html=1;rounded=0;" edge="1" parent="1">
          <mxGeometry width="50" height="50" relative="1" as="geometry">
            <mxPoint x="652.64" y="590" as="sourcePoint" />
            <mxPoint x="653.02" y="520" as="targetPoint" />
          </mxGeometry>
        </mxCell>
        <mxCell id="FeIkRdgwR6V_Xi4W8fY3-23" value="&lt;span style=&quot;color: rgb(0, 0, 0); font-family: Helvetica; font-style: normal; font-variant-ligatures: normal; font-variant-caps: normal; font-weight: 400; letter-spacing: normal; orphans: 2; text-align: center; text-indent: 0px; text-transform: none; widows: 2; word-spacing: 0px; -webkit-text-stroke-width: 0px; white-space: nowrap; background-color: rgb(251, 251, 251); text-decoration-thickness: initial; text-decoration-style: initial; text-decoration-color: initial; float: none; display: inline !important;&quot;&gt;&lt;font style=&quot;font-size: 24px;&quot;&gt;Diagrama&amp;nbsp; P&amp;amp;ID proceso de Pick and Place&lt;/font&gt;&lt;/span&gt;" style="text;whiteSpace=wrap;html=1;" vertex="1" parent="1">
          <mxGeometry x="255" y="180" width="560" height="50" as="geometry" />
        </mxCell>
      </root>
    </mxGraphModel>
  </diagram>
</mxfile>
